<?xml version="1.0" standalone="no"?>
<!DOCTYPE svg PUBLIC "-//W3C//DTD SVG 20010904//EN"
 "http://www.w3.org/TR/2001/REC-SVG-20010904/DTD/svg10.dtd">
<svg version="1.0" xmlns="http://www.w3.org/2000/svg"
 width="360.000000pt" height="360.000000pt" viewBox="0 0 360.000000 360.000000"
 preserveAspectRatio="xMidYMid meet">

<g transform="translate(0.000000,360.000000) scale(0.100000,-0.100000)"
fill="#000000" stroke="none">
<path d="M2451 1808 c-4 -13 -21 -61 -37 -108 -15 -47 -34 -91 -42 -99 -7 -8
-20 -24 -29 -37 -12 -18 -24 -24 -54 -24 -50 0 -73 23 -89 89 -24 100 -114
157 -146 92 -15 -29 -32 -41 -60 -41 -26 0 -74 -36 -74 -56 0 -9 11 -14 35
-14 52 0 103 -25 115 -55 6 -15 10 -50 10 -79 0 -56 24 -119 59 -150 25 -23
105 -33 126 -16 8 7 15 20 15 29 -1 14 -2 14 -14 -1 -14 -20 -31 -25 -20 -7 3
6 1 15 -7 20 -15 9 67 5 92 -6 11 -4 18 -23 22 -55 3 -27 18 -74 32 -104 15
-31 24 -60 20 -66 -3 -5 1 -23 10 -39 20 -39 19 -120 -1 -149 -15 -22 -15 -22
27 -22 40 0 41 1 34 28 -13 42 -9 295 3 319 11 20 20 21 119 20 113 0 165 12
223 53 40 29 49 25 56 -21 4 -22 12 -46 18 -52 16 -17 54 -105 66 -154 13 -54
1 -110 -35 -157 l-28 -37 41 2 42 3 0 45 c0 26 9 71 19 103 14 41 17 66 11 95
-13 60 -18 143 -8 137 8 -5 10 0 12 29 1 6 7 18 13 25 17 18 35 90 26 105 -9
15 -12 47 -3 47 4 0 -5 24 -19 54 -13 30 -28 53 -33 50 -4 -3 -8 -1 -8 5 0 5
-12 8 -27 6 -16 -2 -22 -2 -15 1 18 8 15 21 -7 27 -14 3 -25 22 -36 63 -10 33
-24 64 -32 70 -8 7 -10 14 -6 16 4 3 2 3 -5 1 -8 -1 -20 -3 -28 -3 -8 0 -14
-6 -14 -13 0 -8 -10 -22 -21 -33 -12 -10 -25 -29 -30 -41 -6 -17 -19 -23 -64
-28 -52 -7 -59 -5 -92 22 -20 15 -44 44 -55 63 -34 65 -91 90 -107 48z m22
-13 c-3 -9 -8 -14 -10 -11 -3 3 -2 9 2 15 9 16 15 13 8 -4z m57 -22 c0 -8 -8
-5 -20 7 -11 11 -20 22 -20 25 0 3 9 0 20 -7 11 -7 20 -18 20 -25z m-416 -39
c9 -3 16 -11 16 -16 0 -7 -5 -6 -13 1 -8 6 -17 8 -20 4 -4 -3 -7 -1 -7 5 0 14
2 14 24 6z m684 -39 c-3 -3 -9 2 -12 12 -6 14 -5 15 5 6 7 -7 10 -15 7 -18z
m-689 12 c-2 -2 -11 -8 -20 -15 -12 -9 -16 -9 -16 1 0 7 9 14 20 14 11 1 18 1
16 0z m486 -25 c-7 -8 -35 7 -35 18 0 6 7 6 20 -2 10 -7 17 -14 15 -16z m315
-32 c0 -5 -2 -10 -4 -10 -3 0 -8 5 -11 10 -3 6 -1 10 4 10 6 0 11 -4 11 -10z
m-243 -6 c-3 -3 -12 -4 -19 -1 -8 3 -5 6 6 6 11 1 17 -2 13 -5z m260 -36 c-3
-8 -6 -5 -6 6 -1 11 2 17 5 13 3 -3 4 -12 1 -19z m-727 -38 c7 -14 7 -20 0
-20 -5 0 -10 7 -10 16 0 10 -5 14 -16 10 -8 -3 -12 -2 -9 4 10 16 23 12 35
-10z m790 -12 c0 14 20 7 20 -7 0 -12 -34 -9 -42 3 -14 21 -8 30 7 10 9 -12
14 -14 15 -6z m-605 -27 c-3 -6 -11 -11 -16 -11 -5 0 -4 6 3 14 14 16 24 13
13 -3z m-185 -1 c0 -5 -5 -10 -11 -10 -5 0 -7 5 -4 10 3 6 8 10 11 10 2 0 4
-4 4 -10z m-63 -122 c-3 -8 -6 -5 -6 6 -1 11 2 17 5 13 3 -3 4 -12 1 -19z m25
-47 c15 -18 15 -20 0 -26 -9 -3 -13 -3 -10 1 4 4 3 15 -3 25 -13 24 -8 24 13
0z m811 -16 c-3 -9 -8 -14 -10 -11 -3 3 -2 9 2 15 9 16 15 13 8 -4z m21 -20
c-4 -8 -8 -15 -10 -15 -2 0 -4 7 -4 15 0 8 4 15 10 15 5 0 7 -7 4 -15z m-601
-20 c-3 -9 -8 -14 -10 -11 -3 3 -2 9 2 15 9 16 15 13 8 -4z m597 -39 c0 -12
-5 -7 -19 24 -11 24 -11 24 3 6 9 -11 16 -24 16 -30z m-22 -11 c-3 -3 -9 2
-12 12 -6 14 -5 15 5 6 7 -7 10 -15 7 -18z m-581 -27 c-3 -8 -6 -5 -6 6 -1 11
2 17 5 13 3 -3 4 -12 1 -19z m60 0 c-3 -8 -6 -5 -6 6 -1 11 2 17 5 13 3 -3 4
-12 1 -19z m503 18 c0 -3 -4 -8 -10 -11 -5 -3 -10 -1 -10 4 0 6 5 11 10 11 6
0 10 -2 10 -4z m21 -33 c-12 -20 -14 -14 -5 12 4 9 9 14 11 11 3 -2 0 -13 -6
-23z m-551 -20 c-11 -17 -11 -17 -6 0 3 10 6 24 7 30 0 9 2 9 5 0 3 -7 0 -20
-6 -30z m30 -98 c-6 -8 -8 -20 -4 -27 5 -10 4 -10 -6 -1 -11 10 -11 15 0 28 7
8 15 15 17 15 3 0 0 -7 -7 -15z m550 6 c0 -6 -4 -13 -10 -16 -5 -3 -10 1 -10
9 0 9 5 16 10 16 6 0 10 -4 10 -9z m-30 -146 c0 -2 -7 -8 -15 -15 -12 -10 -15
-10 -15 2 0 8 7 15 15 15 8 0 15 -1 15 -2z"/>
<path d="M3110 1403 c0 -34 13 -44 23 -19 3 8 -1 22 -8 33 -13 17 -14 16 -15
-14z"/>
</g>
</svg>
